<svg xmlns="http://www.w3.org/2000/svg" xmlns:xlink="http://www.w3.org/1999/xlink" width="500" zoomAndPan="magnify" viewBox="0 0 375 374.999991" height="500" preserveAspectRatio="xMidYMid meet" version="1.0"><defs><g/><clipPath id="017be6f914"><path d="M 117.199219 154.632812 L 185.324219 154.632812 L 185.324219 191.207031 L 117.199219 191.207031 Z M 117.199219 154.632812 " clip-rule="nonzero"/></clipPath><clipPath id="229d83f157"><path d="M 166 100.664062 L 204 100.664062 L 204 165 L 166 165 Z M 166 100.664062 " clip-rule="nonzero"/></clipPath><clipPath id="37f8b3e7c9"><path d="M 190 150.558594 L 257.792969 150.558594 L 257.792969 191.207031 L 190 191.207031 Z M 190 150.558594 " clip-rule="nonzero"/></clipPath><clipPath id="01141691c7"><rect x="0" width="195" y="0" height="35"/></clipPath></defs><rect x="-37.5" width="450" fill="#ffffff" y="-37.499999" height="449.999989" fill-opacity="1"/><rect x="-37.5" width="450" fill="#ffffff" y="-37.499999" height="449.999989" fill-opacity="1"/><path fill="#d9d9d9" d="M 141.066406 168.785156 C 141.28125 168.574219 141.488281 168.355469 141.703125 168.136719 L 142.335938 167.484375 C 142.546875 167.269531 142.757812 167.042969 142.964844 166.832031 C 143.164062 166.621094 143.367188 166.410156 143.578125 166.210938 C 143.785156 166.003906 143.996094 165.800781 144.214844 165.605469 C 144.429688 165.40625 144.65625 165.214844 144.878906 165.023438 C 145.105469 164.832031 145.335938 164.644531 145.570312 164.460938 C 145.804688 164.277344 146.042969 164.09375 146.285156 163.917969 C 146.527344 163.738281 146.773438 163.5625 147.023438 163.390625 C 147.273438 163.21875 147.53125 163.050781 147.785156 162.878906 L 147.335938 162.972656 C 147.183594 163.007812 147.03125 163.042969 146.882812 163.082031 C 146.585938 163.160156 146.289062 163.246094 145.992188 163.339844 C 145.699219 163.4375 145.40625 163.542969 145.113281 163.652344 C 144.824219 163.765625 144.535156 163.886719 144.25 164.015625 C 143.960938 164.140625 143.679688 164.28125 143.402344 164.425781 C 143.121094 164.570312 142.84375 164.722656 142.570312 164.882812 C 142.300781 165.042969 142.03125 165.210938 141.765625 165.386719 C 141.507812 165.554688 141.253906 165.714844 141.003906 165.886719 L 140.246094 166.394531 C 139.996094 166.566406 139.742188 166.730469 139.496094 166.90625 L 138 167.941406 L 136.523438 168.992188 C 136.277344 169.167969 136.03125 169.34375 135.785156 169.523438 L 135.054688 170.058594 L 133.402344 171.265625 L 135.160156 172.671875 C 135.808594 173.191406 136.460938 173.707031 137.117188 174.214844 C 137.769531 174.726562 138.429688 175.230469 139.089844 175.734375 C 139.75 176.234375 140.414062 176.730469 141.082031 177.222656 L 141.621094 177.609375 L 141.875 177.785156 L 142.171875 177.976562 C 142.371094 178.105469 142.574219 178.238281 142.773438 178.355469 L 143.367188 178.695312 C 144.164062 179.132812 144.984375 179.535156 145.835938 179.863281 C 146.046875 179.953125 146.261719 180.027344 146.476562 180.101562 C 146.691406 180.175781 146.90625 180.257812 147.125 180.320312 L 147.777344 180.523438 L 148.4375 180.695312 C 149.324219 180.910156 150.21875 181.082031 151.125 181.175781 C 152.027344 181.269531 152.933594 181.328125 153.839844 181.296875 C 154.070312 181.296875 154.292969 181.285156 154.519531 181.273438 C 154.746094 181.257812 154.972656 181.25 155.199219 181.226562 L 155.871094 181.160156 L 156.542969 181.0625 C 156.765625 181.035156 156.988281 180.988281 157.210938 180.945312 C 157.433594 180.90625 157.652344 180.863281 157.871094 180.808594 L 158.527344 180.65625 L 159.179688 180.472656 C 159.394531 180.414062 159.605469 180.335938 159.820312 180.269531 C 160.03125 180.199219 160.246094 180.128906 160.453125 180.046875 L 161.082031 179.804688 L 161.695312 179.539062 C 161.898438 179.449219 162.097656 179.347656 162.296875 179.25 C 162.5 179.152344 162.699219 179.054688 162.894531 178.949219 C 163.089844 178.839844 163.285156 178.738281 163.476562 178.625 L 164.042969 178.277344 C 164.234375 178.167969 164.414062 178.039062 164.597656 177.917969 C 164.78125 177.792969 164.96875 177.671875 165.144531 177.539062 L 165.667969 177.140625 L 166.179688 176.722656 C 166.351562 176.585938 166.515625 176.441406 166.675781 176.292969 C 166.832031 176.140625 167 176 167.152344 175.84375 L 167.613281 175.382812 C 167.765625 175.230469 167.902344 175.078125 168.046875 174.921875 C 168.613281 174.3125 169.175781 173.691406 169.734375 173.0625 C 170.289062 172.433594 170.835938 171.796875 171.367188 171.136719 C 170.621094 171.542969 169.898438 171.964844 169.179688 172.398438 C 168.460938 172.832031 167.75 173.277344 167.046875 173.726562 L 166.523438 174.0625 L 166.011719 174.375 C 165.84375 174.480469 165.664062 174.570312 165.492188 174.671875 C 165.320312 174.769531 165.152344 174.871094 164.972656 174.957031 L 164.449219 175.230469 L 163.914062 175.480469 C 163.742188 175.570312 163.558594 175.644531 163.378906 175.722656 C 163.199219 175.800781 163.023438 175.882812 162.839844 175.949219 C 162.117188 176.238281 161.382812 176.484375 160.644531 176.695312 C 159.902344 176.90625 159.152344 177.066406 158.402344 177.199219 C 157.652344 177.335938 156.894531 177.410156 156.140625 177.460938 C 155.382812 177.515625 154.628906 177.507812 153.878906 177.480469 L 153.3125 177.449219 L 152.753906 177.398438 C 152.566406 177.386719 152.378906 177.355469 152.195312 177.332031 C 152.007812 177.308594 151.820312 177.289062 151.636719 177.253906 L 151.082031 177.164062 L 150.535156 177.050781 C 150.347656 177.019531 150.167969 176.96875 149.988281 176.929688 C 149.804688 176.886719 149.621094 176.84375 149.441406 176.792969 C 148.71875 176.601562 148.011719 176.359375 147.316406 176.09375 L 146.796875 175.886719 L 146.285156 175.65625 C 146.113281 175.582031 145.945312 175.5 145.78125 175.417969 C 145.613281 175.332031 145.441406 175.257812 145.277344 175.164062 L 144.785156 174.898438 C 144.625 174.808594 144.480469 174.71875 144.324219 174.628906 L 144.09375 174.496094 L 143.832031 174.324219 L 143.34375 174.011719 C 142.652344 173.550781 141.960938 173.09375 141.265625 172.640625 C 140.570312 172.1875 139.875 171.738281 139.171875 171.292969 C 139.039062 171.210938 138.90625 171.128906 138.777344 171.046875 L 139.78125 170.070312 L 141.066406 168.785156 " fill-opacity="1" fill-rule="nonzero"/><g clip-path="url(#017be6f914)"><path fill="#764ba2" d="M 183.429688 173.628906 C 182.828125 174.046875 182.230469 174.464844 181.632812 174.886719 C 181.035156 175.308594 180.4375 175.734375 179.84375 176.160156 C 179.25 176.582031 178.65625 177.011719 178.066406 177.441406 C 177.476562 177.871094 176.882812 178.296875 176.296875 178.730469 L 174.53125 180.03125 L 172.773438 181.339844 C 172.191406 181.777344 171.601562 182.210938 171.023438 182.652344 L 171.097656 182.59375 C 170.597656 182.894531 170.101562 183.207031 169.597656 183.5 L 168.835938 183.917969 L 168.453125 184.128906 C 168.324219 184.195312 168.195312 184.257812 168.066406 184.324219 L 167.289062 184.710938 C 167.035156 184.84375 166.765625 184.949219 166.503906 185.066406 L 166.109375 185.242188 L 165.914062 185.328125 L 165.714844 185.40625 L 164.914062 185.71875 C 163.84375 186.109375 162.757812 186.457031 161.65625 186.703125 C 160.554688 186.949219 159.445312 187.132812 158.320312 187.238281 C 157.757812 187.292969 157.1875 187.320312 156.613281 187.34375 L 155.742188 187.367188 L 155.292969 187.378906 L 154.859375 187.386719 L 154.425781 187.386719 L 154.015625 187.378906 C 153.730469 187.371094 153.449219 187.367188 153.164062 187.351562 C 152.601562 187.320312 152.035156 187.277344 151.472656 187.214844 C 150.351562 187.085938 149.234375 186.914062 148.132812 186.660156 C 147.582031 186.535156 147.035156 186.394531 146.492188 186.234375 L 146.289062 186.175781 L 146.1875 186.148438 L 145.671875 185.984375 C 145.394531 185.890625 145.152344 185.816406 144.882812 185.722656 C 143.816406 185.351562 142.773438 184.917969 141.761719 184.425781 C 140.75 183.925781 139.765625 183.375 138.8125 182.773438 C 138.574219 182.621094 138.335938 182.472656 138.105469 182.3125 L 137.753906 182.070312 L 137.382812 181.8125 L 135.898438 180.777344 C 134.910156 180.082031 133.910156 179.402344 132.917969 178.71875 C 131.921875 178.035156 130.929688 177.34375 129.929688 176.667969 L 126.929688 174.636719 C 125.929688 173.957031 124.921875 173.296875 123.917969 172.625 C 123.5 172.34375 123.082031 172.066406 122.664062 171.789062 L 123.632812 170.921875 L 126.246094 168.554688 C 127.117188 167.765625 127.980469 166.964844 128.847656 166.171875 C 129.714844 165.382812 130.570312 164.574219 131.429688 163.773438 C 132.292969 162.976562 133.144531 162.160156 134 161.355469 L 135.277344 160.136719 L 136.546875 158.917969 C 136.761719 158.710938 136.964844 158.523438 137.179688 158.328125 C 137.394531 158.132812 137.613281 157.941406 137.832031 157.753906 C 138.269531 157.375 138.722656 157.003906 139.183594 156.648438 C 139.644531 156.292969 140.113281 155.945312 140.597656 155.613281 C 141.078125 155.277344 141.570312 154.953125 142.066406 154.640625 C 141.515625 154.84375 140.964844 155.066406 140.425781 155.308594 C 139.882812 155.554688 139.351562 155.816406 138.824219 156.09375 C 138.300781 156.375 137.78125 156.671875 137.273438 156.984375 C 137.019531 157.144531 136.765625 157.304688 136.515625 157.472656 C 136.269531 157.632812 136.011719 157.8125 135.773438 157.976562 C 135.285156 158.320312 134.820312 158.667969 134.339844 159.015625 L 132.910156 160.050781 C 131.964844 160.75 131.011719 161.441406 130.074219 162.144531 C 129.132812 162.851562 128.183594 163.546875 127.25 164.261719 C 126.3125 164.972656 125.375 165.675781 124.441406 166.390625 L 121.644531 168.539062 L 118.867188 170.703125 L 117.199219 172.003906 L 118.972656 173.351562 C 119.9375 174.082031 120.910156 174.800781 121.875 175.519531 C 122.847656 176.238281 123.8125 176.96875 124.789062 177.675781 L 127.710938 179.816406 C 128.683594 180.535156 129.667969 181.234375 130.648438 181.941406 C 131.628906 182.648438 132.601562 183.359375 133.589844 184.058594 L 135.066406 185.105469 L 135.433594 185.367188 L 135.832031 185.644531 C 136.09375 185.828125 136.363281 186.003906 136.632812 186.179688 C 137.175781 186.527344 137.726562 186.859375 138.289062 187.175781 C 138.851562 187.488281 139.421875 187.785156 140.003906 188.0625 C 141.167969 188.617188 142.363281 189.105469 143.582031 189.515625 C 143.878906 189.621094 144.214844 189.726562 144.515625 189.816406 L 144.949219 189.941406 L 145.078125 189.980469 L 145.429688 190.074219 C 146.050781 190.238281 146.675781 190.386719 147.308594 190.511719 C 147.9375 190.640625 148.570312 190.753906 149.207031 190.839844 C 149.527344 190.886719 149.847656 190.921875 150.164062 190.960938 C 150.484375 190.992188 150.804688 191.027344 151.125 191.046875 C 151.765625 191.09375 152.40625 191.121094 153.050781 191.128906 C 153.371094 191.136719 153.691406 191.132812 154.011719 191.128906 L 154.503906 191.117188 L 154.75 191.109375 L 154.976562 191.097656 L 155.449219 191.074219 L 155.90625 191.046875 C 156.214844 191.023438 156.527344 191 156.839844 190.972656 C 157.472656 190.917969 158.105469 190.851562 158.742188 190.753906 C 160.015625 190.570312 161.28125 190.300781 162.515625 189.929688 C 163.75 189.5625 164.945312 189.097656 166.109375 188.574219 L 166.96875 188.160156 L 167.183594 188.054688 L 167.390625 187.941406 L 167.808594 187.714844 C 168.085938 187.558594 168.371094 187.417969 168.640625 187.253906 L 169.449219 186.765625 C 169.582031 186.683594 169.71875 186.601562 169.851562 186.515625 L 170.242188 186.253906 L 171.019531 185.722656 C 171.53125 185.359375 172.027344 184.980469 172.527344 184.609375 L 172.605469 184.550781 C 173.144531 184.058594 173.675781 183.558594 174.210938 183.0625 L 175.8125 181.566406 L 177.40625 180.0625 C 177.9375 179.5625 178.464844 179.054688 178.992188 178.550781 C 179.523438 178.046875 180.050781 177.539062 180.574219 177.03125 C 181.097656 176.523438 181.625 176.011719 182.144531 175.5 C 182.667969 174.988281 183.1875 174.472656 183.703125 173.953125 L 184.476562 173.175781 L 185.246094 172.390625 L 184.335938 173.007812 L 183.429688 173.628906 " fill-opacity="1" fill-rule="nonzero"/></g><g clip-path="url(#229d83f157)"><path fill="#764ba2" d="M 166.972656 138.984375 L 167.003906 139.441406 L 167.078125 140.375 C 167.136719 141.003906 167.207031 141.640625 167.308594 142.273438 C 167.503906 143.539062 167.785156 144.796875 168.15625 146.023438 C 168.53125 147.25 169.011719 148.433594 169.539062 149.585938 L 169.960938 150.4375 L 170.066406 150.648438 L 170.179688 150.859375 L 170.410156 151.269531 C 170.566406 151.546875 170.707031 151.824219 170.875 152.09375 L 171.371094 152.894531 C 171.453125 153.027344 171.535156 153.160156 171.621094 153.289062 L 171.890625 153.675781 L 172.421875 154.445312 C 172.601562 154.699219 172.796875 154.941406 172.984375 155.191406 L 173.550781 155.929688 L 173.597656 155.992188 L 174.660156 157.109375 C 175.015625 157.480469 175.367188 157.855469 175.722656 158.226562 C 176.4375 158.964844 177.148438 159.707031 177.871094 160.441406 L 178.953125 161.542969 L 180.039062 162.636719 L 181.136719 163.726562 C 181.503906 164.085938 181.875 164.445312 182.246094 164.804688 C 181.960938 164.371094 181.675781 163.945312 181.382812 163.519531 L 180.511719 162.246094 L 179.628906 160.976562 L 178.738281 159.71875 C 178.144531 158.875 177.542969 158.042969 176.941406 157.207031 C 176.640625 156.789062 176.335938 156.378906 176.035156 155.960938 L 175.125 154.714844 L 175.171875 154.777344 C 174.878906 154.265625 174.566406 153.769531 174.277344 153.257812 L 173.65625 152.097656 C 173.589844 151.96875 173.53125 151.835938 173.464844 151.703125 L 173.082031 150.921875 C 172.953125 150.660156 172.851562 150.390625 172.734375 150.125 L 172.476562 149.527344 L 172.398438 149.324219 L 172.09375 148.519531 C 171.707031 147.4375 171.371094 146.34375 171.132812 145.234375 C 170.890625 144.121094 170.714844 143.003906 170.625 141.871094 C 170.574219 141.308594 170.550781 140.738281 170.527344 140.160156 L 170.503906 139.285156 L 170.5 138.839844 L 170.496094 138.40625 L 170.496094 138.179688 L 170.5 137.96875 L 170.507812 137.554688 C 170.519531 137.273438 170.527344 136.988281 170.546875 136.703125 C 170.582031 136.136719 170.625 135.574219 170.691406 135.011719 C 170.753906 134.445312 170.832031 133.886719 170.929688 133.328125 C 171.023438 132.769531 171.140625 132.214844 171.269531 131.667969 C 171.394531 131.117188 171.535156 130.570312 171.695312 130.027344 L 171.753906 129.824219 L 171.785156 129.722656 L 171.8125 129.632812 L 171.949219 129.203125 C 172.039062 128.925781 172.117188 128.6875 172.214844 128.414062 C 172.597656 127.351562 173.039062 126.3125 173.53125 125.300781 C 173.777344 124.792969 174.042969 124.292969 174.316406 123.800781 C 174.597656 123.3125 174.886719 122.828125 175.191406 122.355469 C 175.347656 122.121094 175.5 121.882812 175.660156 121.652344 L 175.898438 121.300781 L 176.15625 120.929688 L 177.195312 119.445312 C 177.882812 118.453125 178.582031 117.46875 179.261719 116.472656 L 181.3125 113.484375 C 182 112.492188 182.667969 111.484375 183.347656 110.488281 C 184.023438 109.484375 184.703125 108.488281 185.367188 107.476562 L 186.179688 106.253906 L 186.976562 107.144531 C 187.742188 108.007812 188.523438 108.855469 189.300781 109.710938 C 189.6875 110.136719 190.074219 110.566406 190.464844 110.988281 L 192.816406 113.527344 L 194 114.792969 C 194.394531 115.214844 194.785156 115.636719 195.1875 116.054688 L 196.378906 117.308594 C 196.777344 117.726562 197.175781 118.144531 197.578125 118.558594 L 198.785156 119.804688 C 199.1875 120.214844 199.574219 120.621094 199.949219 121.050781 C 200.328125 121.476562 200.699219 121.910156 201.058594 122.355469 C 201.414062 122.800781 201.765625 123.253906 202.101562 123.722656 C 202.441406 124.1875 202.769531 124.664062 203.089844 125.144531 C 202.886719 124.605469 202.660156 124.066406 202.414062 123.539062 C 202.167969 123.011719 201.90625 122.488281 201.625 121.976562 C 201.34375 121.464844 201.050781 120.957031 200.734375 120.460938 C 200.421875 119.964844 200.085938 119.472656 199.75 119 L 198.738281 117.59375 C 198.402344 117.121094 198.0625 116.652344 197.722656 116.1875 L 196.703125 114.789062 C 196.363281 114.320312 196.015625 113.859375 195.671875 113.394531 L 194.640625 112.003906 L 192.5625 109.238281 C 192.214844 108.777344 191.863281 108.320312 191.511719 107.863281 C 190.8125 106.945312 190.117188 106.023438 189.40625 105.117188 L 187.285156 102.382812 L 185.949219 100.664062 L 184.582031 102.496094 L 182.414062 105.398438 C 181.6875 106.363281 180.976562 107.339844 180.261719 108.3125 C 179.550781 109.289062 178.828125 110.257812 178.125 111.238281 L 176.003906 114.175781 C 175.292969 115.152344 174.601562 116.140625 173.898438 117.125 L 172.851562 118.601562 L 172.589844 118.972656 L 172.3125 119.367188 C 172.128906 119.628906 171.957031 119.902344 171.78125 120.171875 C 171.4375 120.714844 171.109375 121.273438 170.792969 121.832031 C 170.484375 122.398438 170.1875 122.96875 169.910156 123.550781 C 169.636719 124.132812 169.367188 124.71875 169.128906 125.316406 C 168.894531 125.917969 168.667969 126.519531 168.46875 127.132812 C 168.371094 127.429688 168.265625 127.765625 168.175781 128.066406 L 168.050781 128.5 L 168.011719 128.628906 L 167.980469 128.746094 L 167.921875 128.980469 C 167.753906 129.601562 167.605469 130.226562 167.484375 130.855469 C 167.359375 131.488281 167.253906 132.121094 167.171875 132.757812 C 167.085938 133.394531 167.019531 134.03125 166.976562 134.671875 C 166.875 135.953125 166.875 137.230469 166.945312 138.515625 L 166.972656 138.984375 " fill-opacity="1" fill-rule="nonzero"/></g><path fill="#d9d9d9" d="M 187.90625 123.40625 C 188.332031 123.847656 188.777344 124.28125 189.214844 124.71875 C 189.433594 124.933594 189.648438 125.15625 189.871094 125.371094 L 190.539062 126.015625 L 191.199219 126.652344 C 191.414062 126.855469 191.625 127.0625 191.832031 127.277344 C 192.035156 127.492188 192.238281 127.710938 192.441406 127.933594 L 192.738281 128.269531 L 193.027344 128.617188 C 193.222656 128.847656 193.410156 129.082031 193.597656 129.324219 C 193.78125 129.566406 193.96875 129.808594 194.144531 130.058594 C 194.503906 130.558594 194.84375 131.070312 195.1875 131.601562 C 195.160156 131.445312 195.132812 131.289062 195.105469 131.136719 C 195.070312 130.984375 195.039062 130.828125 195 130.675781 C 194.925781 130.367188 194.847656 130.0625 194.75 129.757812 C 194.660156 129.457031 194.558594 129.15625 194.445312 128.855469 C 194.335938 128.558594 194.214844 128.261719 194.089844 127.96875 C 193.960938 127.671875 193.824219 127.386719 193.679688 127.097656 C 193.535156 126.808594 193.386719 126.523438 193.222656 126.246094 C 193.0625 125.964844 192.894531 125.6875 192.71875 125.414062 L 192.585938 125.210938 L 192.457031 125.015625 L 192.199219 124.628906 L 191.683594 123.859375 C 191.511719 123.601562 191.335938 123.347656 191.160156 123.09375 C 190.808594 122.585938 190.464844 122.070312 190.101562 121.570312 L 189.566406 120.816406 C 189.390625 120.5625 189.210938 120.308594 189.03125 120.0625 C 188.667969 119.5625 188.304688 119.0625 187.941406 118.566406 L 186.6875 116.871094 L 185.253906 118.675781 C 184.761719 119.292969 184.273438 119.914062 183.792969 120.535156 C 183.308594 121.160156 182.828125 121.785156 182.355469 122.414062 C 181.878906 123.042969 181.410156 123.675781 180.941406 124.308594 L 180.679688 124.664062 L 180.570312 124.820312 L 180.234375 125.304688 L 180.148438 125.425781 L 180.058594 125.566406 L 179.875 125.851562 C 179.757812 126.042969 179.628906 126.238281 179.527344 126.425781 L 179.207031 126.988281 C 179.101562 127.175781 179.007812 127.371094 178.910156 127.566406 C 178.808594 127.757812 178.710938 127.949219 178.625 128.148438 L 178.355469 128.738281 C 178.027344 129.539062 177.726562 130.351562 177.492188 131.1875 C 177.425781 131.390625 177.382812 131.601562 177.324219 131.8125 C 177.273438 132.023438 177.21875 132.230469 177.175781 132.445312 L 177.046875 133.078125 C 177.007812 133.289062 176.976562 133.503906 176.941406 133.714844 L 176.894531 134.035156 L 176.855469 134.359375 C 176.832031 134.570312 176.800781 134.785156 176.785156 135 C 176.753906 135.429688 176.71875 135.859375 176.714844 136.289062 C 176.695312 136.71875 176.714844 137.152344 176.71875 137.578125 C 176.730469 137.792969 176.746094 138.007812 176.757812 138.222656 C 176.769531 138.4375 176.789062 138.648438 176.8125 138.863281 C 176.894531 139.714844 177.042969 140.558594 177.234375 141.390625 L 177.386719 142.007812 L 177.566406 142.621094 C 177.625 142.828125 177.691406 143.027344 177.761719 143.230469 C 177.832031 143.429688 177.898438 143.628906 177.976562 143.828125 C 178.273438 144.621094 178.621094 145.390625 179.015625 146.132812 C 179.417969 146.871094 179.855469 147.585938 180.34375 148.261719 C 180.835938 148.933594 181.355469 149.578125 181.929688 150.171875 C 182.207031 150.472656 182.507812 150.753906 182.804688 151.035156 C 183.105469 151.300781 183.398438 151.566406 183.699219 151.828125 C 184.300781 152.351562 184.910156 152.867188 185.539062 153.367188 C 185.160156 152.660156 184.761719 151.96875 184.351562 151.285156 C 184.152344 150.941406 183.9375 150.601562 183.734375 150.261719 C 183.546875 149.925781 183.335938 149.605469 183.164062 149.261719 C 183.074219 149.09375 182.980469 148.925781 182.894531 148.757812 L 182.640625 148.246094 C 182.550781 148.082031 182.480469 147.902344 182.402344 147.730469 C 182.328125 147.558594 182.242188 147.390625 182.171875 147.214844 L 181.957031 146.699219 C 181.886719 146.523438 181.828125 146.347656 181.761719 146.171875 C 181.625 145.824219 181.515625 145.46875 181.398438 145.117188 C 181.292969 144.761719 181.183594 144.410156 181.097656 144.050781 C 181 143.699219 180.921875 143.335938 180.84375 142.980469 C 180.710938 142.261719 180.582031 141.542969 180.515625 140.820312 C 180.445312 140.097656 180.394531 139.378906 180.398438 138.660156 C 180.390625 138.300781 180.414062 137.9375 180.421875 137.582031 C 180.445312 137.222656 180.460938 136.867188 180.503906 136.511719 C 180.566406 135.796875 180.679688 135.09375 180.816406 134.394531 C 180.949219 133.695312 181.144531 133.011719 181.347656 132.332031 L 181.511719 131.824219 C 181.566406 131.65625 181.632812 131.492188 181.691406 131.324219 C 181.804688 130.988281 181.953125 130.664062 182.082031 130.335938 C 182.367188 129.6875 182.675781 129.046875 183.023438 128.429688 C 183.105469 128.269531 183.195312 128.132812 183.28125 127.988281 L 183.40625 127.769531 L 183.472656 127.660156 L 183.550781 127.539062 L 183.871094 127.042969 L 183.914062 126.980469 L 183.933594 126.949219 L 183.9375 126.941406 C 183.957031 126.914062 183.925781 126.957031 183.917969 126.964844 L 183.929688 126.953125 L 184.011719 126.828125 L 184.179688 126.585938 C 184.617188 125.929688 185.054688 125.277344 185.484375 124.617188 C 185.917969 123.957031 186.34375 123.296875 186.765625 122.632812 C 186.816406 122.550781 186.867188 122.472656 186.917969 122.394531 C 187.03125 122.511719 187.144531 122.628906 187.257812 122.742188 L 187.90625 123.40625 " fill-opacity="1" fill-rule="nonzero"/><path fill="#764ba2" d="M 190.277344 150.894531 L 190.265625 150.992188 C 190.40625 150.425781 190.539062 149.855469 190.6875 149.292969 L 190.933594 148.457031 L 191.050781 148.039062 C 191.09375 147.902344 191.140625 147.765625 191.1875 147.628906 L 191.460938 146.808594 C 191.550781 146.535156 191.667969 146.269531 191.765625 146 C 191.964844 145.460938 192.203125 144.941406 192.429688 144.417969 C 192.90625 143.382812 193.429688 142.375 194.035156 141.421875 C 194.632812 140.46875 195.289062 139.554688 196.011719 138.6875 C 196.367188 138.25 196.75 137.832031 197.136719 137.40625 L 197.734375 136.769531 L 198.042969 136.445312 L 198.34375 136.136719 C 199.132812 135.332031 199.980469 134.574219 200.855469 133.863281 C 201.292969 133.503906 201.742188 133.160156 202.203125 132.832031 C 202.660156 132.503906 203.128906 132.1875 203.605469 131.890625 C 204.082031 131.585938 204.570312 131.300781 205.0625 131.023438 L 205.335938 130.871094 L 205.417969 130.828125 L 205.816406 130.617188 C 206.078125 130.484375 206.300781 130.367188 206.558594 130.242188 C 207.574219 129.75 208.617188 129.324219 209.683594 128.953125 C 210.214844 128.765625 210.75 128.59375 211.292969 128.4375 C 211.832031 128.285156 212.378906 128.144531 212.929688 128.019531 C 213.207031 127.960938 213.480469 127.898438 213.757812 127.847656 L 214.175781 127.769531 L 214.621094 127.691406 L 216.402344 127.359375 L 219.964844 126.699219 L 223.519531 126.011719 L 225.300781 125.667969 L 227.078125 125.3125 C 228.261719 125.070312 229.445312 124.839844 230.628906 124.589844 L 232.253906 124.25 L 232.210938 125.15625 L 232.140625 126.652344 L 232.078125 128.144531 L 232.019531 129.640625 C 231.996094 130.136719 231.984375 130.636719 231.964844 131.136719 C 231.933594 132.132812 231.894531 133.128906 231.871094 134.128906 C 231.847656 135.125 231.816406 136.125 231.800781 137.121094 L 231.773438 138.621094 L 231.753906 140.121094 L 231.738281 141.617188 L 231.734375 143.117188 C 231.734375 143.613281 231.722656 144.109375 231.703125 144.609375 C 231.683594 145.105469 231.652344 145.605469 231.613281 146.105469 C 231.761719 145.625 231.894531 145.140625 232.011719 144.652344 C 232.132812 144.164062 232.230469 143.667969 232.324219 143.171875 L 232.585938 141.695312 L 232.839844 140.21875 L 233.089844 138.738281 L 233.332031 137.261719 C 233.496094 136.273438 233.640625 135.289062 233.796875 134.300781 C 233.953125 133.316406 234.089844 132.328125 234.238281 131.339844 C 234.3125 130.847656 234.386719 130.355469 234.457031 129.859375 L 234.871094 126.898438 L 235.070312 125.414062 L 235.464844 122.449219 L 235.726562 120.484375 L 233.640625 120.769531 L 230.050781 121.265625 C 228.855469 121.429688 227.660156 121.613281 226.464844 121.785156 L 224.671875 122.046875 L 222.882812 122.320312 L 219.300781 122.871094 L 213.933594 123.738281 L 213.488281 123.816406 L 213.015625 123.902344 C 212.699219 123.957031 212.382812 124.023438 212.066406 124.089844 C 211.4375 124.226562 210.8125 124.382812 210.191406 124.550781 C 209.574219 124.726562 208.957031 124.917969 208.347656 125.125 C 207.132812 125.554688 205.941406 126.054688 204.789062 126.625 C 204.503906 126.761719 204.191406 126.929688 203.914062 127.074219 L 203.515625 127.289062 L 203.398438 127.355469 L 203.082031 127.53125 C 202.523438 127.847656 201.976562 128.1875 201.441406 128.546875 C 200.902344 128.902344 200.378906 129.273438 199.867188 129.660156 C 199.351562 130.046875 198.847656 130.449219 198.359375 130.867188 C 198.113281 131.074219 197.875 131.289062 197.636719 131.5 C 197.402344 131.722656 197.164062 131.9375 196.9375 132.164062 C 196.703125 132.386719 196.480469 132.617188 196.257812 132.847656 L 195.917969 133.203125 L 195.746094 133.382812 L 195.597656 133.550781 L 195.28125 133.902344 L 194.976562 134.246094 L 194.359375 134.957031 C 193.953125 135.4375 193.550781 135.9375 193.167969 136.457031 C 192.398438 137.488281 191.699219 138.578125 191.078125 139.707031 C 190.464844 140.84375 189.949219 142.023438 189.496094 143.214844 L 189.175781 144.117188 L 189.101562 144.339844 L 189.03125 144.570312 L 188.898438 145.027344 C 188.8125 145.332031 188.710938 145.632812 188.636719 145.941406 L 188.414062 146.859375 C 188.375 147.015625 188.335938 147.167969 188.300781 147.320312 L 188.210938 147.785156 L 188.03125 148.710938 C 187.929688 149.328125 187.851562 149.949219 187.761719 150.566406 L 187.75 150.648438 L 187.746094 150.664062 L 187.703125 151.757812 L 187.664062 152.851562 L 187.589844 155.042969 L 187.53125 157.234375 C 187.511719 157.964844 187.492188 158.695312 187.480469 159.425781 C 187.46875 160.15625 187.449219 160.886719 187.441406 161.617188 C 187.433594 162.347656 187.421875 163.078125 187.421875 163.8125 C 187.417969 164.542969 187.414062 165.273438 187.417969 166.007812 L 187.425781 167.105469 L 187.441406 168.203125 L 187.652344 167.125 L 187.855469 166.046875 C 187.992188 165.328125 188.121094 164.605469 188.246094 163.886719 C 188.375 163.164062 188.492188 162.445312 188.617188 161.722656 C 188.742188 161.003906 188.855469 160.28125 188.972656 159.558594 C 189.089844 158.835938 189.207031 158.117188 189.316406 157.394531 L 189.648438 155.226562 L 189.96875 153.0625 L 190.125 151.976562 L 190.277344 150.894531 " fill-opacity="1" fill-rule="nonzero"/><path fill="#d9d9d9" d="M 215.890625 137.472656 L 215.894531 137.472656 C 215.898438 137.472656 215.917969 137.46875 215.890625 137.472656 Z M 220.8125 144.945312 C 220.789062 145.269531 220.75 145.589844 220.714844 145.914062 C 220.679688 146.238281 220.632812 146.5625 220.582031 146.886719 L 220.503906 147.375 L 220.414062 147.863281 C 220.351562 148.191406 220.28125 148.519531 220.210938 148.851562 L 220.101562 149.347656 C 220.058594 149.511719 220.023438 149.683594 219.984375 149.851562 C 220.097656 149.71875 220.214844 149.589844 220.320312 149.457031 C 220.429688 149.324219 220.539062 149.1875 220.640625 149.046875 C 220.742188 148.910156 220.847656 148.769531 220.945312 148.628906 L 221.234375 148.195312 C 221.421875 147.902344 221.597656 147.601562 221.769531 147.296875 C 221.933594 146.988281 222.089844 146.675781 222.242188 146.359375 C 222.394531 146.042969 222.527344 145.714844 222.660156 145.386719 C 222.722656 145.222656 222.789062 145.058594 222.847656 144.890625 C 222.902344 144.722656 222.960938 144.558594 223.015625 144.386719 C 223.121094 144.050781 223.226562 143.707031 223.3125 143.363281 C 223.355469 143.191406 223.402344 143.015625 223.441406 142.84375 L 223.550781 142.320312 C 223.683594 141.664062 223.808594 141.003906 223.933594 140.34375 C 224.054688 139.683594 224.167969 139.023438 224.277344 138.363281 C 224.382812 137.699219 224.484375 137.039062 224.582031 136.375 C 224.679688 135.714844 224.773438 135.050781 224.855469 134.386719 L 225.167969 131.980469 L 222.609375 132.316406 C 222.066406 132.386719 221.523438 132.46875 220.980469 132.546875 C 220.4375 132.628906 219.894531 132.707031 219.355469 132.796875 C 218.8125 132.878906 218.269531 132.972656 217.730469 133.0625 C 217.191406 133.15625 216.652344 133.253906 216.113281 133.351562 L 215.304688 133.503906 L 215.203125 133.523438 L 215.09375 133.542969 L 215.042969 133.554688 L 214.84375 133.597656 L 214.441406 133.691406 C 213.9375 133.789062 213.292969 133.992188 212.703125 134.164062 C 212.546875 134.207031 212.414062 134.265625 212.273438 134.316406 L 211.851562 134.472656 L 211.429688 134.632812 C 211.289062 134.683594 211.152344 134.753906 211.015625 134.8125 L 210.199219 135.183594 L 209.40625 135.601562 C 209.273438 135.675781 209.144531 135.742188 209.015625 135.820312 L 208.632812 136.054688 C 208.382812 136.214844 208.125 136.367188 207.882812 136.535156 C 207.398438 136.882812 206.914062 137.222656 206.464844 137.613281 C 206.003906 137.980469 205.582031 138.394531 205.160156 138.800781 C 204.953125 139.011719 204.757812 139.230469 204.558594 139.445312 L 204.265625 139.769531 C 204.171875 139.882812 204.082031 140 203.988281 140.113281 C 203.808594 140.34375 203.628906 140.570312 203.453125 140.800781 C 203.285156 141.039062 203.121094 141.277344 202.960938 141.519531 C 202.792969 141.753906 202.648438 142.007812 202.503906 142.253906 L 202.289062 142.628906 L 202.183594 142.816406 L 202.085938 143.011719 C 201.953125 143.265625 201.832031 143.527344 201.710938 143.78125 C 201.585938 144.039062 201.492188 144.3125 201.386719 144.574219 C 201.332031 144.707031 201.28125 144.839844 201.234375 144.972656 C 201.183594 145.105469 201.144531 145.242188 201.101562 145.378906 C 201.023438 145.648438 200.945312 145.921875 200.875 146.195312 C 201.070312 145.988281 201.261719 145.78125 201.445312 145.574219 C 201.539062 145.472656 201.628906 145.367188 201.726562 145.269531 C 201.824219 145.171875 201.917969 145.070312 202.015625 144.972656 L 202.300781 144.675781 C 202.394531 144.578125 202.484375 144.476562 202.585938 144.386719 C 202.785156 144.195312 202.984375 144.011719 203.171875 143.824219 L 203.316406 143.683594 L 203.46875 143.550781 L 203.769531 143.285156 C 203.972656 143.109375 204.160156 142.925781 204.371094 142.765625 C 204.582031 142.597656 204.785156 142.433594 204.984375 142.265625 C 205.191406 142.105469 205.40625 141.949219 205.617188 141.796875 L 205.929688 141.5625 L 206.253906 141.34375 C 206.46875 141.203125 206.675781 141.046875 206.894531 140.910156 C 207.335938 140.644531 207.761719 140.363281 208.214844 140.125 C 208.441406 140.007812 208.652344 139.867188 208.886719 139.761719 C 209.113281 139.652344 209.339844 139.539062 209.566406 139.421875 C 209.792969 139.3125 210.027344 139.21875 210.253906 139.113281 L 210.597656 138.960938 C 210.714844 138.910156 210.832031 138.871094 210.949219 138.824219 L 211.648438 138.550781 L 212.359375 138.316406 C 212.476562 138.277344 212.59375 138.234375 212.714844 138.199219 L 213.074219 138.097656 C 213.3125 138.035156 213.554688 137.960938 213.785156 137.902344 C 214.257812 137.804688 214.660156 137.6875 215.238281 137.59375 L 215.644531 137.519531 L 215.847656 137.484375 L 215.851562 137.480469 L 215.863281 137.480469 L 215.890625 137.476562 L 215.992188 137.460938 L 216.804688 137.332031 C 217.34375 137.238281 217.882812 137.152344 218.425781 137.054688 C 218.964844 136.957031 219.503906 136.863281 220.042969 136.761719 C 220.335938 136.707031 220.625 136.652344 220.917969 136.59375 C 220.902344 137.082031 220.890625 137.566406 220.878906 138.054688 C 220.871094 138.726562 220.863281 139.394531 220.863281 140.066406 C 220.867188 140.738281 220.871094 141.410156 220.886719 142.082031 C 220.890625 142.402344 220.898438 142.714844 220.898438 143.03125 C 220.894531 143.347656 220.890625 143.667969 220.875 143.984375 C 220.859375 144.304688 220.835938 144.625 220.8125 144.945312 " fill-opacity="1" fill-rule="nonzero"/><path fill="#d9d9d9" d="M 201.542969 172.777344 C 202.429688 172.167969 203.3125 171.558594 204.203125 170.972656 C 205.097656 170.390625 205.984375 169.808594 206.894531 169.261719 C 207.800781 168.71875 208.707031 168.183594 209.628906 167.695312 C 210.554688 167.207031 211.480469 166.742188 212.425781 166.332031 C 212.660156 166.226562 212.894531 166.125 213.132812 166.03125 C 213.371094 165.929688 213.609375 165.839844 213.847656 165.75 C 214.082031 165.65625 214.320312 165.570312 214.558594 165.484375 C 214.796875 165.402344 215.039062 165.316406 215.277344 165.242188 C 216.234375 164.929688 217.203125 164.691406 218.171875 164.511719 C 219.140625 164.339844 220.109375 164.238281 221.074219 164.230469 C 222.035156 164.226562 222.988281 164.285156 223.925781 164.449219 C 224.867188 164.617188 225.785156 164.875 226.683594 165.203125 C 227.582031 165.53125 228.457031 165.953125 229.304688 166.433594 C 229.726562 166.675781 230.144531 166.933594 230.554688 167.207031 C 230.949219 167.46875 231.410156 167.796875 231.847656 168.101562 L 234.511719 169.945312 C 234.714844 170.085938 234.917969 170.226562 235.121094 170.363281 C 234.710938 170.722656 234.300781 171.082031 233.890625 171.441406 L 233.097656 172.132812 L 231.527344 173.53125 L 231.132812 173.878906 L 231.035156 173.964844 L 231 174 L 230.992188 174.003906 C 230.984375 174.011719 231.042969 173.964844 231.015625 173.988281 L 230.964844 174.03125 L 230.367188 174.542969 L 230.003906 174.824219 C 229.773438 175.019531 229.503906 175.207031 229.246094 175.398438 C 229.117188 175.496094 228.980469 175.582031 228.847656 175.671875 C 228.714844 175.761719 228.582031 175.855469 228.445312 175.941406 L 228.035156 176.195312 L 227.828125 176.320312 L 227.617188 176.4375 L 227.191406 176.675781 L 226.761719 176.898438 C 226.476562 177.054688 226.179688 177.183594 225.882812 177.324219 C 225.738281 177.394531 225.585938 177.453125 225.433594 177.515625 C 225.285156 177.578125 225.136719 177.644531 224.984375 177.703125 C 224.675781 177.8125 224.371094 177.933594 224.0625 178.03125 L 223.59375 178.1875 L 223.121094 178.324219 C 222.808594 178.425781 222.488281 178.492188 222.167969 178.574219 C 221.523438 178.710938 220.875 178.84375 220.214844 178.925781 L 219.96875 178.957031 L 219.84375 178.972656 L 219.816406 178.976562 L 219.808594 178.976562 C 219.84375 178.976562 219.8125 178.976562 219.816406 178.976562 L 219.800781 178.980469 L 219.734375 178.984375 L 219.210938 179.03125 L 219.082031 179.042969 L 218.960938 179.050781 L 218.714844 179.066406 C 218.554688 179.070312 218.394531 179.089844 218.226562 179.089844 C 217.554688 179.121094 216.882812 179.101562 216.210938 179.066406 C 215.539062 179.019531 214.863281 178.957031 214.191406 178.84375 C 213.519531 178.738281 212.847656 178.609375 212.183594 178.429688 C 211.847656 178.351562 211.519531 178.25 211.183594 178.152344 C 211.019531 178.105469 210.855469 178.042969 210.691406 177.992188 C 210.523438 177.941406 210.359375 177.886719 210.199219 177.824219 C 209.539062 177.59375 208.894531 177.320312 208.25 177.035156 L 208.667969 177.359375 L 208.878906 177.523438 L 209.097656 177.675781 L 209.53125 177.980469 L 209.984375 178.265625 C 210.132812 178.363281 210.285156 178.453125 210.441406 178.542969 C 210.597656 178.632812 210.75 178.722656 210.90625 178.808594 C 211.226562 178.972656 211.539062 179.144531 211.867188 179.296875 C 212.515625 179.605469 213.191406 179.871094 213.875 180.109375 C 214.5625 180.34375 215.265625 180.53125 215.976562 180.703125 C 216.691406 180.847656 217.414062 180.976562 218.148438 181.054688 C 218.328125 181.078125 218.519531 181.09375 218.707031 181.105469 L 218.988281 181.128906 L 219.128906 181.136719 L 219.261719 181.144531 L 219.785156 181.164062 L 219.851562 181.167969 L 220.078125 181.167969 L 220.355469 181.171875 C 220.726562 181.175781 221.097656 181.15625 221.46875 181.144531 C 221.652344 181.140625 221.835938 181.117188 222.023438 181.105469 C 222.207031 181.085938 222.394531 181.074219 222.578125 181.050781 C 222.945312 181.003906 223.320312 180.96875 223.6875 180.898438 L 224.238281 180.804688 L 224.789062 180.691406 C 225.15625 180.617188 225.515625 180.511719 225.878906 180.417969 C 226.058594 180.371094 226.238281 180.3125 226.417969 180.257812 C 226.597656 180.199219 226.777344 180.152344 226.953125 180.085938 C 227.308594 179.960938 227.667969 179.84375 228.015625 179.699219 C 228.1875 179.628906 228.367188 179.558594 228.539062 179.484375 L 229.3125 179.132812 L 229.566406 179.003906 L 230.070312 178.75 C 230.238281 178.660156 230.402344 178.566406 230.566406 178.472656 C 230.730469 178.378906 230.902344 178.292969 231.058594 178.191406 C 231.382812 177.988281 231.703125 177.800781 232.03125 177.570312 L 232.519531 177.234375 L 232.9375 176.917969 L 233.148438 176.761719 L 233.203125 176.722656 L 233.28125 176.65625 L 233.386719 176.578125 L 233.800781 176.253906 L 235.453125 174.957031 L 236.277344 174.300781 C 237.371094 173.425781 238.472656 172.558594 239.558594 171.679688 L 241.511719 170.101562 L 239.433594 168.582031 C 238.5625 167.945312 237.683594 167.3125 236.808594 166.683594 L 234.175781 164.796875 C 233.328125 164.195312 232.332031 163.484375 231.304688 162.910156 C 230.273438 162.328125 229.1875 161.816406 228.050781 161.417969 C 226.917969 161.015625 225.738281 160.726562 224.546875 160.550781 C 223.347656 160.378906 222.136719 160.316406 220.941406 160.378906 C 219.746094 160.445312 218.566406 160.625 217.417969 160.882812 C 216.269531 161.144531 215.160156 161.515625 214.085938 161.933594 C 213.011719 162.351562 211.980469 162.847656 210.980469 163.382812 C 209.984375 163.921875 209.015625 164.496094 208.089844 165.121094 C 207.160156 165.742188 206.25 166.378906 205.378906 167.0625 C 204.503906 167.738281 203.648438 168.429688 202.820312 169.152344 C 201.992188 169.867188 201.179688 170.597656 200.382812 171.347656 C 199.585938 172.089844 198.8125 172.855469 198.039062 173.621094 C 197.273438 174.390625 196.511719 175.164062 195.761719 175.949219 C 195.011719 176.730469 194.265625 177.519531 193.523438 178.320312 C 194.441406 177.730469 195.339844 177.117188 196.230469 176.5 C 197.125 175.882812 198.007812 175.257812 198.894531 174.636719 C 199.777344 174.011719 200.660156 173.390625 201.542969 172.777344 " fill-opacity="1" fill-rule="nonzero"/><g clip-path="url(#37f8b3e7c9)"><path fill="#764ba2" d="M 255.644531 167.871094 L 252.6875 165.777344 C 251.707031 165.078125 250.710938 164.390625 249.726562 163.695312 L 246.757812 161.617188 C 245.769531 160.921875 244.777344 160.230469 243.785156 159.546875 L 240.804688 157.484375 L 239.316406 156.457031 L 238.945312 156.195312 L 238.550781 155.933594 L 238.359375 155.804688 L 238.152344 155.671875 C 238.011719 155.582031 237.871094 155.492188 237.734375 155.40625 C 237.191406 155.066406 236.632812 154.746094 236.070312 154.4375 C 235.507812 154.136719 234.933594 153.84375 234.351562 153.574219 C 233.191406 153.03125 232 152.554688 230.777344 152.164062 C 230.171875 151.96875 229.554688 151.789062 228.9375 151.632812 L 228.71875 151.574219 L 228.484375 151.515625 L 228.003906 151.402344 C 227.691406 151.335938 227.378906 151.265625 227.066406 151.207031 C 225.8125 150.960938 224.546875 150.792969 223.273438 150.710938 C 222.636719 150.664062 222 150.644531 221.363281 150.636719 C 220.726562 150.632812 220.09375 150.648438 219.457031 150.679688 L 218.980469 150.707031 L 218.53125 150.738281 C 218.226562 150.761719 217.910156 150.785156 217.597656 150.8125 C 216.972656 150.875 216.34375 150.941406 215.714844 151.039062 C 214.453125 151.230469 213.203125 151.5 211.984375 151.863281 C 210.761719 152.230469 209.582031 152.695312 208.429688 153.210938 L 207.578125 153.621094 L 207.367188 153.722656 L 207.160156 153.835938 L 206.746094 154.058594 C 206.472656 154.214844 206.191406 154.351562 205.921875 154.515625 L 205.121094 155.003906 C 204.988281 155.085938 204.851562 155.164062 204.722656 155.246094 L 204.332031 155.507812 L 203.558594 156.027344 C 203.300781 156.199219 203.054688 156.394531 202.804688 156.574219 L 202.058594 157.132812 L 202.011719 157.167969 L 202 157.175781 L 200.484375 158.5625 L 198.976562 159.953125 L 197.464844 161.351562 L 195.964844 162.75 L 194.464844 164.15625 L 192.96875 165.570312 L 191.484375 166.992188 C 190.988281 167.464844 190.496094 167.941406 190.003906 168.421875 C 190.5625 168.023438 191.121094 167.625 191.675781 167.21875 L 193.339844 166.011719 L 194.996094 164.796875 L 196.648438 163.570312 L 198.296875 162.34375 L 199.9375 161.109375 L 201.578125 159.871094 L 203.214844 158.628906 L 203.15625 158.675781 C 203.660156 158.371094 204.160156 158.054688 204.664062 157.757812 L 205.433594 157.328125 L 205.816406 157.117188 C 205.945312 157.046875 206.078125 156.984375 206.207031 156.917969 L 206.988281 156.527344 C 207.25 156.394531 207.519531 156.285156 207.78125 156.164062 C 208.308594 155.921875 208.851562 155.714844 209.386719 155.503906 C 210.472656 155.105469 211.570312 154.757812 212.6875 154.507812 C 213.800781 154.257812 214.925781 154.078125 216.066406 153.976562 C 216.636719 153.921875 217.210938 153.894531 217.789062 153.875 L 218.664062 153.855469 L 219.117188 153.847656 L 219.546875 153.84375 C 220.121094 153.84375 220.691406 153.855469 221.261719 153.890625 C 221.835938 153.921875 222.402344 153.96875 222.96875 154.039062 C 223.535156 154.101562 224.101562 154.1875 224.660156 154.285156 C 225.222656 154.382812 225.78125 154.496094 226.335938 154.628906 C 226.613281 154.691406 226.886719 154.765625 227.164062 154.835938 L 227.5625 154.945312 L 227.761719 155.003906 L 227.980469 155.066406 C 228.53125 155.230469 229.066406 155.410156 229.597656 155.605469 C 230.664062 155.996094 231.710938 156.441406 232.722656 156.949219 C 233.230469 157.203125 233.726562 157.472656 234.21875 157.753906 C 234.707031 158.039062 235.1875 158.335938 235.660156 158.648438 C 235.78125 158.726562 235.886719 158.800781 236.003906 158.878906 L 236.171875 158.992188 L 236.355469 159.121094 L 237.074219 159.636719 L 241.492188 162.800781 C 242.472656 163.507812 243.457031 164.207031 244.441406 164.902344 L 247.398438 166.996094 C 248.386719 167.695312 249.367188 168.398438 250.359375 169.085938 L 251.179688 169.664062 L 250.308594 170.394531 L 247.4375 172.828125 L 244.566406 175.265625 L 238.847656 180.171875 L 237.425781 181.402344 L 237.082031 181.699219 C 236.96875 181.796875 236.855469 181.894531 236.742188 181.984375 C 236.511719 182.175781 236.285156 182.359375 236.050781 182.539062 C 235.117188 183.269531 234.132812 183.933594 233.121094 184.542969 C 232.609375 184.847656 232.097656 185.140625 231.566406 185.414062 C 231.304688 185.550781 231.039062 185.683594 230.769531 185.8125 L 230.367188 186.003906 L 229.972656 186.179688 C 229.414062 186.425781 228.871094 186.652344 228.308594 186.855469 C 227.75 187.066406 227.1875 187.261719 226.617188 187.433594 C 225.472656 187.785156 224.308594 188.066406 223.128906 188.273438 C 222.539062 188.378906 221.945312 188.464844 221.347656 188.539062 C 221.054688 188.570312 220.769531 188.605469 220.449219 188.628906 L 220.214844 188.648438 L 220 188.664062 L 219.550781 188.691406 C 218.347656 188.753906 217.136719 188.753906 215.929688 188.679688 C 214.722656 188.601562 213.515625 188.445312 212.320312 188.226562 C 212.019531 188.171875 211.726562 188.109375 211.433594 188.050781 L 210.976562 187.945312 L 210.859375 187.917969 L 210.8125 187.90625 L 210.757812 187.894531 L 210.535156 187.835938 C 209.941406 187.6875 209.351562 187.523438 208.769531 187.339844 C 207.597656 186.980469 206.453125 186.53125 205.328125 186.03125 C 204.203125 185.523438 203.105469 184.945312 202.039062 184.308594 L 202.003906 184.285156 L 202 184.28125 L 200.882812 183.597656 L 198.570312 182.191406 L 197.410156 181.496094 C 197.757812 181.78125 198.101562 182.074219 198.453125 182.355469 L 199.503906 183.207031 L 200.558594 184.0625 L 201.085938 184.488281 L 201.617188 184.910156 L 201.652344 184.933594 L 201.65625 184.9375 L 201.621094 184.914062 C 202.125 185.304688 202.640625 185.679688 203.167969 186.042969 C 203.695312 186.402344 204.238281 186.742188 204.785156 187.070312 C 205.890625 187.722656 207.042969 188.296875 208.226562 188.804688 C 208.820312 189.058594 209.421875 189.292969 210.035156 189.503906 L 210.261719 189.582031 L 210.320312 189.601562 L 210.382812 189.625 L 210.496094 189.660156 L 210.945312 189.808594 C 211.257812 189.902344 211.574219 190 211.886719 190.085938 C 213.132812 190.441406 214.40625 190.703125 215.695312 190.890625 C 216.984375 191.078125 218.289062 191.183594 219.597656 191.203125 L 220.085938 191.207031 L 220.34375 191.207031 L 220.578125 191.203125 C 220.742188 191.199219 220.886719 191.199219 221.058594 191.191406 L 221.558594 191.171875 C 222.214844 191.140625 222.867188 191.089844 223.523438 191.019531 C 224.828125 190.867188 226.125 190.636719 227.40625 190.328125 C 228.046875 190.171875 228.679688 189.992188 229.3125 189.800781 C 229.941406 189.605469 230.570312 189.378906 231.171875 189.148438 L 231.644531 188.964844 L 232.101562 188.773438 C 232.40625 188.644531 232.710938 188.515625 233.011719 188.375 C 233.613281 188.101562 234.207031 187.800781 234.789062 187.488281 C 235.960938 186.863281 237.082031 186.148438 238.164062 185.375 C 238.433594 185.183594 238.699219 184.984375 238.964844 184.785156 C 239.097656 184.683594 239.226562 184.578125 239.355469 184.476562 L 239.738281 184.175781 L 241.207031 182.996094 L 244.132812 180.621094 L 247.054688 178.246094 L 249.964844 175.859375 L 252.878906 173.46875 L 255.777344 171.066406 L 257.792969 169.390625 L 255.644531 167.871094 " fill-opacity="1" fill-rule="nonzero"/></g><path fill="#764ba2" d="M 137.386719 126.132812 L 137.652344 127.925781 C 137.828125 129.117188 138 130.316406 138.183594 131.507812 L 138.734375 135.089844 C 138.917969 136.285156 139.113281 137.472656 139.308594 138.667969 L 139.886719 142.242188 L 140.191406 144.027344 L 140.265625 144.476562 L 140.351562 144.941406 L 140.394531 145.167969 L 140.441406 145.410156 C 140.476562 145.570312 140.507812 145.738281 140.542969 145.894531 C 140.675781 146.527344 140.832031 147.148438 141.003906 147.769531 C 141.179688 148.390625 141.375 149.003906 141.589844 149.613281 C 142.019531 150.828125 142.519531 152.015625 143.089844 153.171875 C 143.375 153.746094 143.675781 154.320312 144 154.871094 L 144.113281 155.066406 L 144.238281 155.277344 L 144.496094 155.703125 C 144.667969 155.972656 144.839844 156.246094 145.019531 156.511719 C 145.371094 157.050781 145.742188 157.574219 146.132812 158.089844 C 146.519531 158.601562 146.917969 159.105469 147.339844 159.589844 C 147.757812 160.078125 148.191406 160.550781 148.640625 161.011719 C 149.085938 161.472656 149.550781 161.917969 150.023438 162.347656 L 150.378906 162.667969 L 150.71875 162.96875 C 150.949219 163.171875 151.191406 163.382812 151.429688 163.582031 C 151.917969 163.988281 152.414062 164.390625 152.933594 164.773438 C 153.964844 165.539062 155.046875 166.25 156.183594 166.859375 C 157.316406 167.472656 158.492188 167.988281 159.683594 168.441406 L 160.585938 168.753906 L 160.8125 168.832031 L 161.039062 168.902344 L 161.496094 169.035156 C 161.800781 169.121094 162.101562 169.222656 162.410156 169.296875 L 163.328125 169.523438 C 163.480469 169.558594 163.632812 169.601562 163.785156 169.632812 L 164.25 169.722656 L 165.175781 169.898438 C 165.792969 170.003906 166.414062 170.082031 167.03125 170.175781 L 167.109375 170.1875 L 167.125 170.1875 C 167.855469 170.222656 168.585938 170.246094 169.316406 170.273438 L 171.511719 170.347656 L 173.703125 170.410156 L 174.800781 170.441406 L 175.898438 170.464844 C 176.632812 170.480469 177.363281 170.496094 178.09375 170.503906 L 179.191406 170.519531 L 180.292969 170.53125 C 181.023438 170.539062 181.757812 170.542969 182.492188 170.542969 L 183.589844 170.539062 L 184.691406 170.523438 L 183.609375 170.316406 L 182.527344 170.113281 C 181.808594 169.984375 181.085938 169.855469 180.363281 169.730469 L 179.28125 169.542969 L 178.199219 169.363281 C 177.476562 169.242188 176.753906 169.125 176.03125 169.011719 L 174.945312 168.835938 L 173.863281 168.667969 L 171.691406 168.335938 L 169.519531 168.019531 C 168.796875 167.914062 168.074219 167.808594 167.347656 167.710938 L 167.445312 167.722656 C 166.878906 167.582031 166.308594 167.453125 165.746094 167.300781 L 164.492188 166.9375 C 164.351562 166.898438 164.214844 166.847656 164.078125 166.800781 L 163.257812 166.527344 C 162.984375 166.4375 162.71875 166.324219 162.449219 166.222656 L 162.046875 166.070312 L 161.847656 165.992188 L 161.652344 165.90625 L 160.867188 165.558594 C 159.832031 165.082031 158.820312 164.558594 157.867188 163.957031 C 156.914062 163.347656 155.996094 162.699219 155.128906 161.972656 C 154.695312 161.613281 154.269531 161.234375 153.847656 160.84375 L 153.214844 160.246094 L 152.886719 159.933594 L 152.582031 159.636719 C 152.175781 159.238281 151.785156 158.832031 151.40625 158.410156 C 151.027344 157.992188 150.660156 157.558594 150.304688 157.117188 C 150.128906 156.898438 149.957031 156.671875 149.78125 156.449219 C 149.613281 156.226562 149.441406 156 149.28125 155.769531 C 148.949219 155.3125 148.632812 154.84375 148.335938 154.367188 C 148.183594 154.128906 148.039062 153.882812 147.890625 153.644531 L 147.6875 153.289062 L 147.585938 153.109375 L 147.476562 152.910156 C 147.203125 152.410156 146.945312 151.914062 146.695312 151.40625 C 146.203125 150.390625 145.773438 149.347656 145.40625 148.28125 C 145.042969 147.214844 144.730469 146.132812 144.484375 145.03125 C 144.453125 144.894531 144.429688 144.765625 144.398438 144.628906 L 144.355469 144.429688 L 144.316406 144.210938 L 144.234375 143.785156 L 144.15625 143.339844 L 143.839844 141.558594 L 143.183594 137.996094 C 142.960938 136.808594 142.746094 135.617188 142.515625 134.433594 L 141.828125 130.875 C 141.601562 129.691406 141.355469 128.507812 141.121094 127.320312 L 140.824219 125.828125 C 141.25 125.851562 141.675781 125.878906 142.101562 125.898438 L 145.585938 126.070312 L 149.074219 126.222656 C 150.234375 126.273438 151.398438 126.308594 152.5625 126.351562 C 153.726562 126.394531 154.890625 126.421875 156.054688 126.457031 L 157.800781 126.496094 L 159.546875 126.53125 C 160.121094 126.539062 160.691406 126.5625 161.265625 126.605469 C 161.835938 126.640625 162.410156 126.695312 162.984375 126.765625 C 163.554688 126.832031 164.128906 126.914062 164.699219 127.015625 C 165.273438 127.113281 165.84375 127.222656 166.414062 127.347656 C 165.882812 127.105469 165.339844 126.882812 164.789062 126.679688 C 164.238281 126.476562 163.679688 126.292969 163.113281 126.125 C 162.550781 125.957031 161.976562 125.808594 161.402344 125.675781 C 160.824219 125.546875 160.242188 125.433594 159.65625 125.335938 L 157.929688 125.058594 L 156.203125 124.785156 C 155.054688 124.609375 153.902344 124.429688 152.75 124.261719 C 151.597656 124.097656 150.449219 123.921875 149.296875 123.765625 L 145.839844 123.289062 L 142.378906 122.835938 C 141.800781 122.757812 141.222656 122.691406 140.648438 122.617188 L 138.917969 122.40625 L 136.828125 122.144531 L 137.136719 124.335938 L 137.386719 126.132812 " fill-opacity="1" fill-rule="nonzero"/><path fill="#d9d9d9" d="M 165.765625 156.976562 C 165.589844 156.890625 165.414062 156.804688 165.242188 156.722656 C 165.0625 156.644531 164.894531 156.550781 164.722656 156.460938 C 164.550781 156.367188 164.378906 156.285156 164.214844 156.1875 C 163.539062 155.8125 162.898438 155.390625 162.269531 154.957031 C 161.644531 154.519531 161.058594 154.035156 160.488281 153.539062 L 160.066406 153.15625 L 159.660156 152.761719 C 159.519531 152.632812 159.390625 152.496094 159.261719 152.359375 C 159.132812 152.222656 159 152.089844 158.875 151.949219 L 158.5 151.527344 L 158.140625 151.09375 C 158.015625 150.949219 157.90625 150.800781 157.789062 150.652344 C 157.675781 150.503906 157.558594 150.355469 157.453125 150.203125 C 157.003906 149.601562 156.609375 148.964844 156.230469 148.320312 L 155.957031 147.832031 L 155.699219 147.332031 C 155.609375 147.167969 155.535156 146.996094 155.457031 146.828125 C 155.378906 146.660156 155.292969 146.492188 155.226562 146.320312 C 154.917969 145.636719 154.675781 144.929688 154.445312 144.21875 L 154.285156 143.683594 L 154.144531 143.140625 L 154.074219 142.867188 L 153.957031 142.320312 C 153.9375 142.226562 153.917969 142.140625 153.898438 142.035156 C 153.738281 141.222656 153.574219 140.410156 153.40625 139.597656 C 153.234375 138.785156 153.0625 137.972656 152.882812 137.164062 C 152.855469 137.027344 152.824219 136.894531 152.792969 136.757812 L 154.3125 136.777344 C 154.945312 136.792969 155.582031 136.78125 156.214844 136.785156 C 156.847656 136.789062 157.480469 136.777344 158.113281 136.769531 L 159.054688 136.757812 L 159.5 136.757812 L 159.957031 136.769531 C 160.257812 136.78125 160.566406 136.792969 160.871094 136.816406 C 161.175781 136.835938 161.484375 136.867188 161.789062 136.902344 C 162.097656 136.933594 162.40625 136.972656 162.710938 137.019531 C 163.019531 137.066406 163.328125 137.117188 163.636719 137.175781 C 164.257812 137.285156 164.875 137.429688 165.5 137.578125 L 165.105469 137.300781 C 164.972656 137.210938 164.835938 137.121094 164.703125 137.035156 C 164.425781 136.863281 164.148438 136.699219 163.863281 136.542969 C 163.578125 136.390625 163.289062 136.242188 162.992188 136.101562 C 162.699219 135.964844 162.398438 135.832031 162.09375 135.710938 C 161.792969 135.585938 161.484375 135.476562 161.171875 135.367188 C 160.859375 135.261719 160.542969 135.160156 160.226562 135.074219 L 159.746094 134.949219 L 159.25 134.832031 L 159.019531 134.78125 L 158.84375 134.742188 L 158.773438 134.730469 L 158.308594 134.636719 C 157.683594 134.519531 157.0625 134.390625 156.441406 134.28125 C 155.816406 134.171875 155.195312 134.050781 154.570312 133.949219 L 152.699219 133.636719 C 152.074219 133.539062 151.449219 133.441406 150.824219 133.347656 L 148.753906 133.042969 L 149.015625 135.3125 C 149.109375 136.136719 149.207031 136.960938 149.3125 137.785156 C 149.417969 138.609375 149.527344 139.429688 149.644531 140.25 C 149.757812 141.074219 149.878906 141.894531 150.003906 142.710938 C 150.015625 142.8125 150.039062 142.929688 150.058594 143.039062 L 150.117188 143.375 L 150.179688 143.710938 L 150.25 144.042969 C 150.300781 144.265625 150.347656 144.488281 150.40625 144.710938 L 150.585938 145.367188 C 150.640625 145.589844 150.71875 145.804688 150.785156 146.023438 C 150.855469 146.238281 150.921875 146.457031 151.007812 146.667969 L 151.246094 147.308594 L 151.511719 147.9375 C 151.882812 148.769531 152.289062 149.589844 152.769531 150.363281 C 152.882812 150.5625 153.007812 150.75 153.132812 150.941406 C 153.257812 151.132812 153.378906 151.324219 153.511719 151.507812 L 153.910156 152.0625 C 154.046875 152.242188 154.1875 152.421875 154.328125 152.597656 C 154.902344 153.304688 155.507812 153.984375 156.167969 154.605469 C 156.824219 155.226562 157.511719 155.820312 158.246094 156.34375 C 158.421875 156.484375 158.613281 156.609375 158.796875 156.734375 C 158.984375 156.863281 159.167969 156.988281 159.363281 157.105469 C 159.554688 157.222656 159.742188 157.34375 159.9375 157.460938 L 160.523438 157.789062 C 160.71875 157.902344 160.921875 157.996094 161.121094 158.101562 C 161.320312 158.199219 161.519531 158.300781 161.726562 158.390625 C 161.929688 158.480469 162.132812 158.574219 162.339844 158.660156 L 162.964844 158.90625 C 163.800781 159.214844 164.644531 159.492188 165.511719 159.675781 C 166.375 159.875 167.246094 160.019531 168.121094 160.089844 C 168.335938 160.113281 168.558594 160.125 168.78125 160.136719 L 169.117188 160.148438 C 169.230469 160.15625 169.339844 160.160156 169.441406 160.15625 L 170.175781 160.15625 C 170.175781 160.15625 170.214844 160.160156 170.203125 160.15625 L 170.242188 160.15625 L 170.398438 160.148438 L 170.710938 160.136719 C 171.546875 160.109375 172.382812 160.070312 173.21875 160.019531 C 174.054688 159.972656 174.894531 159.910156 175.734375 159.820312 C 174.921875 159.585938 174.109375 159.375 173.292969 159.175781 C 172.480469 158.976562 171.664062 158.789062 170.847656 158.609375 L 170.542969 158.542969 L 170.390625 158.507812 L 170.351562 158.5 C 170.332031 158.5 170.367188 158.503906 170.359375 158.5 L 170.347656 158.5 L 170.328125 158.496094 L 170.253906 158.476562 L 169.644531 158.335938 C 169.539062 158.316406 169.445312 158.289062 169.351562 158.261719 L 169.070312 158.179688 C 168.886719 158.128906 168.699219 158.078125 168.511719 158.015625 L 167.945312 157.839844 L 167.390625 157.640625 C 167.207031 157.578125 167.023438 157.5 166.839844 157.429688 C 166.660156 157.359375 166.476562 157.292969 166.300781 157.210938 L 165.765625 156.976562 " fill-opacity="1" fill-rule="nonzero"/><g transform="matrix(1, 0, 0, 1, 90, 198)"><g clip-path="url(#01141691c7)"><g fill="#000000" fill-opacity="1"><g transform="translate(0.751087, 27.751825)"><g><path d="M 3.09375 0 L 3.09375 -18.90625 L 9.828125 -18.90625 C 12.054688 -18.90625 13.6875 -18.4375 14.71875 -17.5 C 15.75 -16.5625 16.265625 -15.289062 16.265625 -13.6875 C 16.265625 -12.738281 15.988281 -11.875 15.4375 -11.09375 C 14.882812 -10.320312 14.101562 -9.832031 13.09375 -9.625 L 13.09375 -9.59375 C 14.21875 -9.382812 15.109375 -8.875 15.765625 -8.0625 C 16.421875 -7.25 16.75 -6.328125 16.75 -5.296875 C 16.75 -3.691406 16.144531 -2.40625 14.9375 -1.4375 C 13.738281 -0.476562 12.023438 0 9.796875 0 Z M 5.390625 -2.140625 L 10.34375 -2.140625 C 11.695312 -2.140625 12.703125 -2.414062 13.359375 -2.96875 C 14.015625 -3.53125 14.34375 -4.304688 14.34375 -5.296875 C 14.34375 -6.304688 14.015625 -7.082031 13.359375 -7.625 C 12.703125 -8.175781 11.695312 -8.453125 10.34375 -8.453125 L 5.390625 -8.453125 Z M 5.390625 -10.59375 L 9.859375 -10.59375 C 12.523438 -10.59375 13.859375 -11.625 13.859375 -13.6875 C 13.859375 -15.726562 12.523438 -16.75 9.859375 -16.75 L 5.390625 -16.75 Z M 5.390625 -10.59375 "/></g></g></g><g fill="#000000" fill-opacity="1"><g transform="translate(19.455364, 27.751825)"><g><path d="M 10.25 -18.90625 C 12.175781 -18.90625 13.722656 -18.40625 14.890625 -17.40625 C 16.054688 -16.414062 16.640625 -15.070312 16.640625 -13.375 C 16.640625 -11.675781 16.050781 -10.351562 14.875 -9.40625 C 13.707031 -8.457031 12.15625 -7.984375 10.21875 -7.984375 L 10.03125 -7.84375 L 5.390625 -7.84375 L 5.390625 0 L 3.09375 0 L 3.09375 -18.90625 Z M 10.21875 -10 C 11.582031 -10 12.59375 -10.28125 13.25 -10.84375 C 13.90625 -11.40625 14.234375 -12.25 14.234375 -13.375 C 14.234375 -14.5 13.90625 -15.34375 13.25 -15.90625 C 12.59375 -16.46875 11.582031 -16.75 10.21875 -16.75 L 5.390625 -16.75 L 5.390625 -10 Z M 11.546875 -9.53125 L 17.78125 0 L 15.0625 0 L 9.625 -8.28125 Z M 11.546875 -9.53125 "/></g></g></g><g fill="#000000" fill-opacity="1"><g transform="translate(38.503366, 27.751825)"><g><path d="M 18.15625 0 L 15.71875 0 L 13.71875 -5.234375 L 5.15625 -5.234375 L 3.15625 0 L 0.75 0 L 8.109375 -18.90625 L 10.828125 -18.90625 Z M 5.984375 -7.390625 L 12.890625 -7.390625 L 9.421875 -16.703125 Z M 5.984375 -7.390625 "/></g></g></g><g fill="#000000" fill-opacity="1"><g transform="translate(57.408146, 27.751825)"><g><path d="M 21.359375 -18.90625 L 21.359375 0 L 19.1875 0 L 19.1875 -11.890625 L 19.453125 -16.875 L 19.421875 -16.875 L 13.203125 0 L 11.25 0 L 5.046875 -16.875 L 5.015625 -16.875 L 5.265625 -11.890625 L 5.265625 0 L 3.09375 0 L 3.09375 -18.90625 L 6.609375 -18.90625 L 10.765625 -7.421875 L 12.203125 -2.6875 L 12.265625 -2.6875 L 13.71875 -7.390625 L 17.84375 -18.90625 Z M 21.359375 -18.90625 "/></g></g></g><g fill="#000000" fill-opacity="1"><g transform="translate(81.869787, 27.751825)"><g><path d="M 17.921875 -18.90625 L 17.921875 0 L 15.640625 0 L 15.640625 -18.90625 Z M 5.390625 -18.90625 L 5.390625 0 L 3.09375 0 L 3.09375 -18.90625 Z M 16.703125 -10.65625 L 16.703125 -8.5 L 4.296875 -8.5 L 4.296875 -10.65625 Z M 16.703125 -10.65625 "/></g></g></g><g fill="#000000" fill-opacity="1"><g transform="translate(102.894193, 27.751825)"><g><path d="M 5.390625 -18.90625 L 5.390625 0 L 3.09375 0 L 3.09375 -18.90625 Z M 5.390625 -18.90625 "/></g></g></g><g fill="#000000" fill-opacity="1"><g transform="translate(111.372698, 27.751825)"><g/></g></g><g fill="#000000" fill-opacity="1"><g transform="translate(121.140168, 27.751825)"><g><path d="M 5.390625 -2.140625 L 16.203125 -2.140625 L 16.203125 0 L 3.09375 0 L 3.09375 -18.90625 L 5.390625 -18.90625 Z M 5.390625 -2.140625 "/></g></g></g><g fill="#000000" fill-opacity="1"><g transform="translate(138.269038, 27.751825)"><g><path d="M 18.15625 0 L 15.71875 0 L 13.71875 -5.234375 L 5.15625 -5.234375 L 3.15625 0 L 0.75 0 L 8.109375 -18.90625 L 10.828125 -18.90625 Z M 5.984375 -7.390625 L 12.890625 -7.390625 L 9.421875 -16.703125 Z M 5.984375 -7.390625 "/></g></g></g><g fill="#000000" fill-opacity="1"><g transform="translate(157.173834, 27.751825)"><g><path d="M 3.09375 0 L 3.09375 -18.90625 L 9.828125 -18.90625 C 12.054688 -18.90625 13.6875 -18.4375 14.71875 -17.5 C 15.75 -16.5625 16.265625 -15.289062 16.265625 -13.6875 C 16.265625 -12.738281 15.988281 -11.875 15.4375 -11.09375 C 14.882812 -10.320312 14.101562 -9.832031 13.09375 -9.625 L 13.09375 -9.59375 C 14.21875 -9.382812 15.109375 -8.875 15.765625 -8.0625 C 16.421875 -7.25 16.75 -6.328125 16.75 -5.296875 C 16.75 -3.691406 16.144531 -2.40625 14.9375 -1.4375 C 13.738281 -0.476562 12.023438 0 9.796875 0 Z M 5.390625 -2.140625 L 10.34375 -2.140625 C 11.695312 -2.140625 12.703125 -2.414062 13.359375 -2.96875 C 14.015625 -3.53125 14.34375 -4.304688 14.34375 -5.296875 C 14.34375 -6.304688 14.015625 -7.082031 13.359375 -7.625 C 12.703125 -8.175781 11.695312 -8.453125 10.34375 -8.453125 L 5.390625 -8.453125 Z M 5.390625 -10.59375 L 9.859375 -10.59375 C 12.523438 -10.59375 13.859375 -11.625 13.859375 -13.6875 C 13.859375 -15.726562 12.523438 -16.75 9.859375 -16.75 L 5.390625 -16.75 Z M 5.390625 -10.59375 "/></g></g></g><g fill="#000000" fill-opacity="1"><g transform="translate(175.878095, 27.751825)"><g><path d="M 9.171875 -19.1875 C 10.828125 -19.1875 12.253906 -18.847656 13.453125 -18.171875 C 14.660156 -17.492188 15.664062 -16.492188 16.46875 -15.171875 L 14.546875 -13.6875 C 13.835938 -14.90625 13.039062 -15.769531 12.15625 -16.28125 C 11.269531 -16.789062 10.195312 -17.046875 8.9375 -17.046875 C 7.925781 -17.046875 7.085938 -16.898438 6.421875 -16.609375 C 5.765625 -16.328125 5.285156 -15.953125 4.984375 -15.484375 C 4.679688 -15.015625 4.53125 -14.484375 4.53125 -13.890625 C 4.53125 -13.222656 4.738281 -12.632812 5.15625 -12.125 C 5.570312 -11.625 6.410156 -11.226562 7.671875 -10.9375 L 11.765625 -10.03125 C 13.578125 -9.625 14.84375 -9.015625 15.5625 -8.203125 C 16.28125 -7.390625 16.640625 -6.382812 16.640625 -5.1875 C 16.640625 -4.113281 16.335938 -3.160156 15.734375 -2.328125 C 15.128906 -1.503906 14.285156 -0.863281 13.203125 -0.40625 C 12.117188 0.0507812 10.835938 0.28125 9.359375 0.28125 C 7.984375 0.28125 6.773438 0.0976562 5.734375 -0.265625 C 4.703125 -0.640625 3.8125 -1.140625 3.0625 -1.765625 C 2.320312 -2.398438 1.710938 -3.109375 1.234375 -3.890625 L 3.234375 -5.53125 C 3.597656 -4.800781 4.066406 -4.160156 4.640625 -3.609375 C 5.210938 -3.054688 5.90625 -2.625 6.71875 -2.3125 C 7.53125 -2.007812 8.460938 -1.859375 9.515625 -1.859375 C 10.484375 -1.859375 11.328125 -1.976562 12.046875 -2.21875 C 12.765625 -2.457031 13.3125 -2.8125 13.6875 -3.28125 C 14.070312 -3.75 14.265625 -4.316406 14.265625 -4.984375 C 14.265625 -5.597656 14.0625 -6.144531 13.65625 -6.625 C 13.257812 -7.113281 12.507812 -7.484375 11.40625 -7.734375 L 6.953125 -8.734375 C 5.796875 -9.003906 4.859375 -9.375 4.140625 -9.84375 C 3.421875 -10.3125 2.90625 -10.863281 2.59375 -11.5 C 2.28125 -12.132812 2.125 -12.828125 2.125 -13.578125 C 2.125 -14.585938 2.40625 -15.515625 2.96875 -16.359375 C 3.53125 -17.210938 4.335938 -17.894531 5.390625 -18.40625 C 6.453125 -18.925781 7.710938 -19.1875 9.171875 -19.1875 Z M 9.171875 -19.1875 "/></g></g></g></g></g><path stroke-linecap="butt" transform="matrix(0.75, 0, 0, 0.75, 93.538381, 240.270205)" fill="none" stroke-linejoin="miter" d="M 0.00090899 1.499102 L 252.058217 1.499102 " stroke="#bd8e2d" stroke-width="3" stroke-opacity="1" stroke-miterlimit="4"/><g fill="#000000" fill-opacity="1"><g transform="translate(99.086438, 265.959446)"><g><path d="M 3.21875 -6.703125 C 3.21875 -7.191406 3.320312 -7.554688 3.53125 -7.796875 C 3.738281 -8.046875 4.066406 -8.222656 4.515625 -8.328125 L 4.65625 -7.921875 C 4.351562 -7.804688 4.140625 -7.664062 4.015625 -7.5 C 3.898438 -7.34375 3.847656 -7.140625 3.859375 -6.890625 L 4.28125 -6.890625 L 4.28125 -5.640625 L 3.21875 -5.640625 Z M 0.84375 -6.703125 C 0.84375 -7.191406 0.945312 -7.554688 1.15625 -7.796875 C 1.363281 -8.046875 1.695312 -8.222656 2.15625 -8.328125 L 2.296875 -7.921875 C 1.992188 -7.804688 1.78125 -7.664062 1.65625 -7.5 C 1.53125 -7.34375 1.476562 -7.140625 1.5 -6.890625 L 1.9375 -6.890625 L 1.9375 -5.640625 L 0.84375 -5.640625 Z M 0.84375 -6.703125 "/></g></g></g><g fill="#000000" fill-opacity="1"><g transform="translate(106.482674, 265.959446)"><g><path d="M 1.171875 -8.265625 L 4.71875 -8.265625 C 5.238281 -8.265625 5.695312 -8.191406 6.09375 -8.046875 C 6.488281 -7.898438 6.816406 -7.695312 7.078125 -7.4375 C 7.273438 -7.238281 7.429688 -7 7.546875 -6.71875 C 7.660156 -6.445312 7.71875 -6.144531 7.71875 -5.8125 L 7.71875 -5.78125 C 7.71875 -5.4375 7.660156 -5.128906 7.546875 -4.859375 C 7.429688 -4.585938 7.273438 -4.347656 7.078125 -4.140625 C 6.878906 -3.941406 6.640625 -3.78125 6.359375 -3.65625 C 6.085938 -3.53125 5.789062 -3.4375 5.46875 -3.375 L 8.015625 0 L 6.859375 0 L 4.46875 -3.21875 L 2.109375 -3.21875 L 2.109375 0 L 1.171875 0 Z M 4.640625 -4.046875 C 4.953125 -4.046875 5.234375 -4.082031 5.484375 -4.15625 C 5.742188 -4.238281 5.96875 -4.351562 6.15625 -4.5 C 6.351562 -4.644531 6.503906 -4.820312 6.609375 -5.03125 C 6.710938 -5.238281 6.765625 -5.476562 6.765625 -5.75 L 6.765625 -5.78125 C 6.765625 -6.289062 6.578125 -6.6875 6.203125 -6.96875 C 5.835938 -7.257812 5.320312 -7.40625 4.65625 -7.40625 L 2.109375 -7.40625 L 2.109375 -4.046875 Z M 4.640625 -4.046875 "/></g></g></g><g fill="#000000" fill-opacity="1"><g transform="translate(117.162781, 265.959446)"><g><path d="M 1.171875 -8.265625 L 7.140625 -8.265625 L 7.140625 -7.421875 L 2.109375 -7.421875 L 2.109375 -4.59375 L 6.609375 -4.59375 L 6.609375 -3.75 L 2.109375 -3.75 L 2.109375 -0.84375 L 7.203125 -0.84375 L 7.203125 0 L 1.171875 0 Z M 1.171875 -8.265625 "/></g></g></g><g fill="#000000" fill-opacity="1"><g transform="translate(127.216827, 265.959446)"><g><path d="M 4.953125 0.140625 C 4.347656 0.140625 3.796875 0.03125 3.296875 -0.1875 C 2.796875 -0.40625 2.359375 -0.707031 1.984375 -1.09375 C 1.609375 -1.476562 1.316406 -1.925781 1.109375 -2.4375 C 0.898438 -2.957031 0.796875 -3.515625 0.796875 -4.109375 L 0.796875 -4.140625 C 0.796875 -4.722656 0.898438 -5.269531 1.109375 -5.78125 C 1.316406 -6.300781 1.609375 -6.753906 1.984375 -7.140625 C 2.359375 -7.535156 2.800781 -7.84375 3.3125 -8.0625 C 3.820312 -8.289062 4.378906 -8.40625 4.984375 -8.40625 C 5.359375 -8.40625 5.695312 -8.375 6 -8.3125 C 6.3125 -8.25 6.59375 -8.160156 6.84375 -8.046875 C 7.101562 -7.929688 7.34375 -7.789062 7.5625 -7.625 C 7.789062 -7.46875 8.003906 -7.289062 8.203125 -7.09375 L 7.578125 -6.421875 C 7.222656 -6.742188 6.84375 -7.007812 6.4375 -7.21875 C 6.03125 -7.4375 5.539062 -7.546875 4.96875 -7.546875 C 4.507812 -7.546875 4.085938 -7.457031 3.703125 -7.28125 C 3.316406 -7.113281 2.976562 -6.875 2.6875 -6.5625 C 2.394531 -6.257812 2.164062 -5.898438 2 -5.484375 C 1.84375 -5.066406 1.765625 -4.625 1.765625 -4.15625 L 1.765625 -4.140625 C 1.765625 -3.648438 1.84375 -3.195312 2 -2.78125 C 2.164062 -2.375 2.394531 -2.015625 2.6875 -1.703125 C 2.976562 -1.398438 3.316406 -1.160156 3.703125 -0.984375 C 4.085938 -0.804688 4.507812 -0.71875 4.96875 -0.71875 C 5.539062 -0.71875 6.03125 -0.820312 6.4375 -1.03125 C 6.84375 -1.238281 7.242188 -1.53125 7.640625 -1.90625 L 8.25 -1.3125 C 8.039062 -1.09375 7.816406 -0.894531 7.578125 -0.71875 C 7.347656 -0.539062 7.097656 -0.390625 6.828125 -0.265625 C 6.566406 -0.140625 6.28125 -0.0390625 5.96875 0.03125 C 5.664062 0.101562 5.328125 0.140625 4.953125 0.140625 Z M 4.953125 0.140625 "/></g></g></g><g fill="#000000" fill-opacity="1"><g transform="translate(138.121363, 265.959446)"><g><path d="M 1.171875 -8.265625 L 2.109375 -8.265625 L 2.109375 -0.859375 L 6.75 -0.859375 L 6.75 0 L 1.171875 0 Z M 1.171875 -8.265625 "/></g></g></g><g fill="#000000" fill-opacity="1"><g transform="translate(147.525717, 265.959446)"><g><path d="M 4.234375 -8.328125 L 5.109375 -8.328125 L 8.875 0 L 7.859375 0 L 6.90625 -2.1875 L 2.390625 -2.1875 L 1.421875 0 L 0.453125 0 Z M 6.53125 -3.03125 L 4.65625 -7.234375 L 2.765625 -3.03125 Z M 6.53125 -3.03125 "/></g></g></g><g fill="#000000" fill-opacity="1"><g transform="translate(158.997251, 265.959446)"><g><path d="M 1.25 -8.265625 L 2.1875 -8.265625 L 2.1875 0 L 1.25 0 Z M 1.25 -8.265625 "/></g></g></g><g fill="#000000" fill-opacity="1"><g transform="translate(164.57438, 265.959446)"><g><path d="M 1.171875 -8.265625 L 2.109375 -8.265625 L 5.125 -3.75 L 8.140625 -8.265625 L 9.078125 -8.265625 L 9.078125 0 L 8.15625 0 L 8.15625 -6.703125 L 5.140625 -2.265625 L 5.09375 -2.265625 L 2.078125 -6.6875 L 2.078125 0 L 1.171875 0 Z M 1.171875 -8.265625 "/></g></g></g><g fill="#000000" fill-opacity="1"><g transform="translate(176.967289, 265.959446)"><g/></g></g><g fill="#000000" fill-opacity="1"><g transform="translate(182.650722, 265.959446)"><g><path d="M 3.75 -3.265625 L 0.3125 -8.265625 L 1.453125 -8.265625 L 4.234375 -4.140625 L 7.046875 -8.265625 L 8.140625 -8.265625 L 4.703125 -3.28125 L 4.703125 0 L 3.75 0 Z M 3.75 -3.265625 "/></g></g></g><g fill="#000000" fill-opacity="1"><g transform="translate(193.248133, 265.959446)"><g><path d="M 5.015625 0.140625 C 4.378906 0.140625 3.800781 0.0234375 3.28125 -0.203125 C 2.769531 -0.429688 2.328125 -0.738281 1.953125 -1.125 C 1.585938 -1.519531 1.300781 -1.972656 1.09375 -2.484375 C 0.894531 -3.003906 0.796875 -3.546875 0.796875 -4.109375 L 0.796875 -4.140625 C 0.796875 -4.703125 0.898438 -5.242188 1.109375 -5.765625 C 1.316406 -6.285156 1.601562 -6.738281 1.96875 -7.125 C 2.34375 -7.519531 2.789062 -7.832031 3.3125 -8.0625 C 3.832031 -8.289062 4.40625 -8.40625 5.03125 -8.40625 C 5.664062 -8.40625 6.238281 -8.289062 6.75 -8.0625 C 7.269531 -7.832031 7.710938 -7.523438 8.078125 -7.140625 C 8.453125 -6.753906 8.738281 -6.300781 8.9375 -5.78125 C 9.132812 -5.269531 9.234375 -4.726562 9.234375 -4.15625 L 9.234375 -4.140625 C 9.234375 -3.566406 9.128906 -3.019531 8.921875 -2.5 C 8.722656 -1.976562 8.4375 -1.523438 8.0625 -1.140625 C 7.695312 -0.753906 7.253906 -0.441406 6.734375 -0.203125 C 6.210938 0.0234375 5.640625 0.140625 5.015625 0.140625 Z M 5.03125 -0.71875 C 5.5 -0.71875 5.929688 -0.804688 6.328125 -0.984375 C 6.734375 -1.160156 7.078125 -1.398438 7.359375 -1.703125 C 7.640625 -2.015625 7.859375 -2.375 8.015625 -2.78125 C 8.179688 -3.195312 8.265625 -3.640625 8.265625 -4.109375 L 8.265625 -4.140625 C 8.265625 -4.609375 8.179688 -5.046875 8.015625 -5.453125 C 7.859375 -5.867188 7.632812 -6.226562 7.34375 -6.53125 C 7.050781 -6.84375 6.707031 -7.085938 6.3125 -7.265625 C 5.914062 -7.453125 5.484375 -7.546875 5.015625 -7.546875 C 4.535156 -7.546875 4.097656 -7.457031 3.703125 -7.28125 C 3.304688 -7.101562 2.960938 -6.859375 2.671875 -6.546875 C 2.390625 -6.242188 2.164062 -5.882812 2 -5.46875 C 1.84375 -5.0625 1.765625 -4.625 1.765625 -4.15625 L 1.765625 -4.140625 C 1.765625 -3.660156 1.84375 -3.210938 2 -2.796875 C 2.164062 -2.390625 2.394531 -2.03125 2.6875 -1.71875 C 2.976562 -1.414062 3.320312 -1.171875 3.71875 -0.984375 C 4.125 -0.804688 4.5625 -0.71875 5.03125 -0.71875 Z M 5.03125 -0.71875 "/></g></g></g><g fill="#000000" fill-opacity="1"><g transform="translate(205.428411, 265.959446)"><g><path d="M 4.484375 0.125 C 3.960938 0.125 3.488281 0.0507812 3.0625 -0.09375 C 2.644531 -0.25 2.285156 -0.476562 1.984375 -0.78125 C 1.679688 -1.082031 1.445312 -1.457031 1.28125 -1.90625 C 1.125 -2.363281 1.046875 -2.882812 1.046875 -3.46875 L 1.046875 -8.265625 L 1.96875 -8.265625 L 1.96875 -3.515625 C 1.96875 -2.617188 2.191406 -1.929688 2.640625 -1.453125 C 3.085938 -0.972656 3.707031 -0.734375 4.5 -0.734375 C 5.257812 -0.734375 5.863281 -0.960938 6.3125 -1.421875 C 6.769531 -1.878906 7 -2.5625 7 -3.46875 L 7 -8.265625 L 7.921875 -8.265625 L 7.921875 -3.53125 C 7.921875 -2.925781 7.835938 -2.394531 7.671875 -1.9375 C 7.515625 -1.476562 7.28125 -1.09375 6.96875 -0.78125 C 6.664062 -0.476562 6.300781 -0.25 5.875 -0.09375 C 5.457031 0.0507812 4.992188 0.125 4.484375 0.125 Z M 4.484375 0.125 "/></g></g></g><g fill="#000000" fill-opacity="1"><g transform="translate(216.533757, 265.959446)"><g><path d="M 1.171875 -8.265625 L 4.71875 -8.265625 C 5.238281 -8.265625 5.695312 -8.191406 6.09375 -8.046875 C 6.488281 -7.898438 6.816406 -7.695312 7.078125 -7.4375 C 7.273438 -7.238281 7.429688 -7 7.546875 -6.71875 C 7.660156 -6.445312 7.71875 -6.144531 7.71875 -5.8125 L 7.71875 -5.78125 C 7.71875 -5.4375 7.660156 -5.128906 7.546875 -4.859375 C 7.429688 -4.585938 7.273438 -4.347656 7.078125 -4.140625 C 6.878906 -3.941406 6.640625 -3.78125 6.359375 -3.65625 C 6.085938 -3.53125 5.789062 -3.4375 5.46875 -3.375 L 8.015625 0 L 6.859375 0 L 4.46875 -3.21875 L 2.109375 -3.21875 L 2.109375 0 L 1.171875 0 Z M 4.640625 -4.046875 C 4.953125 -4.046875 5.234375 -4.082031 5.484375 -4.15625 C 5.742188 -4.238281 5.96875 -4.351562 6.15625 -4.5 C 6.351562 -4.644531 6.503906 -4.820312 6.609375 -5.03125 C 6.710938 -5.238281 6.765625 -5.476562 6.765625 -5.75 L 6.765625 -5.78125 C 6.765625 -6.289062 6.578125 -6.6875 6.203125 -6.96875 C 5.835938 -7.257812 5.320312 -7.40625 4.65625 -7.40625 L 2.109375 -7.40625 L 2.109375 -4.046875 Z M 4.640625 -4.046875 "/></g></g></g><g fill="#000000" fill-opacity="1"><g transform="translate(227.213864, 265.959446)"><g/></g></g><g fill="#000000" fill-opacity="1"><g transform="translate(232.897297, 265.959446)"><g><path d="M 3.3125 -7.40625 L 0.53125 -7.40625 L 0.53125 -8.265625 L 7.046875 -8.265625 L 7.046875 -7.40625 L 4.25 -7.40625 L 4.25 0 L 3.3125 0 Z M 3.3125 -7.40625 "/></g></g></g><g fill="#000000" fill-opacity="1"><g transform="translate(242.608776, 265.959446)"><g><path d="M 1.25 -8.265625 L 2.1875 -8.265625 L 2.1875 0 L 1.25 0 Z M 1.25 -8.265625 "/></g></g></g><g fill="#000000" fill-opacity="1"><g transform="translate(248.185905, 265.959446)"><g><path d="M 1.171875 -8.265625 L 2.109375 -8.265625 L 5.125 -3.75 L 8.140625 -8.265625 L 9.078125 -8.265625 L 9.078125 0 L 8.15625 0 L 8.15625 -6.703125 L 5.140625 -2.265625 L 5.09375 -2.265625 L 2.078125 -6.6875 L 2.078125 0 L 1.171875 0 Z M 1.171875 -8.265625 "/></g></g></g><g fill="#000000" fill-opacity="1"><g transform="translate(260.578814, 265.959446)"><g><path d="M 1.171875 -8.265625 L 7.140625 -8.265625 L 7.140625 -7.421875 L 2.109375 -7.421875 L 2.109375 -4.59375 L 6.609375 -4.59375 L 6.609375 -3.75 L 2.109375 -3.75 L 2.109375 -0.84375 L 7.203125 -0.84375 L 7.203125 0 L 1.171875 0 Z M 1.171875 -8.265625 "/></g></g></g><g fill="#000000" fill-opacity="1"><g transform="translate(270.63286, 265.959446)"><g><path d="M 2.96875 -6 C 3.257812 -6.113281 3.46875 -6.25 3.59375 -6.40625 C 3.726562 -6.570312 3.78125 -6.78125 3.75 -7.03125 L 3.328125 -7.03125 L 3.328125 -8.265625 L 4.40625 -8.265625 L 4.40625 -7.203125 C 4.40625 -6.722656 4.300781 -6.359375 4.09375 -6.109375 C 3.882812 -5.859375 3.554688 -5.6875 3.109375 -5.59375 Z M 0.609375 -6 C 0.898438 -6.113281 1.109375 -6.25 1.234375 -6.40625 C 1.359375 -6.570312 1.410156 -6.78125 1.390625 -7.03125 L 0.96875 -7.03125 L 0.96875 -8.265625 L 2.0625 -8.265625 L 2.0625 -7.203125 C 2.0625 -6.722656 1.953125 -6.359375 1.734375 -6.109375 C 1.523438 -5.859375 1.195312 -5.6875 0.75 -5.59375 Z M 0.609375 -6 "/></g></g></g></svg>